<?xml version="1.0" standalone="no"?>
<!DOCTYPE svg PUBLIC "-//W3C//DTD SVG 20010904//EN"
 "http://www.w3.org/TR/2001/REC-SVG-20010904/DTD/svg10.dtd">
<svg version="1.0" xmlns="http://www.w3.org/2000/svg"
 width="467.000000pt" height="467.000000pt" viewBox="0 0 467.000000 467.000000"
 preserveAspectRatio="xMidYMid meet">
<metadata>
Created by potrace 1.11, written by Peter Selinger 2001-2013
</metadata>
<g transform="translate(0.000000,467.000000) scale(0.100000,-0.100000)"
fill="#000000" stroke="none">
<path d="M2330 3720 l0 -80 -80 0 -80 0 0 -85 0 -85 -85 0 -85 0 0 -85 0 -85
-85 0 -85 0 0 -415 0 -415 -80 0 -80 0 0 -85 0 -85 -85 0 -85 0 0 170 0 170
-165 0 -165 0 0 250 0 250 -170 0 -170 0 0 -85 0 -85 -80 0 -80 0 0 85 0 85
-170 0 -170 0 0 -85 0 -85 -165 0 -165 0 0 -415 0 -415 85 0 85 0 0 -85 0 -85
80 0 80 0 0 -165 0 -165 85 0 85 0 0 -85 0 -85 165 0 165 0 0 -85 0 -85 500 0
500 0 0 85 0 85 85 0 85 0 0 165 0 165 -85 0 -85 0 0 -80 0 -80 -80 0 -80 0 0
-85 0 -85 -250 0 -250 0 0 85 0 85 -85 0 -85 0 0 80 0 80 85 0 85 0 0 85 0 85
80 0 80 0 0 85 0 85 335 0 335 0 0 500 0 500 85 0 85 0 0 80 0 80 80 0 80 0 0
85 0 85 85 0 85 0 0 85 0 85 250 0 250 0 0 -85 0 -85 85 0 85 0 0 -85 0 -85
80 0 80 0 0 -80 0 -80 85 0 85 0 0 -420 0 -420 165 0 165 0 0 -165 0 -165 85
0 85 0 0 -85 0 -85 85 0 85 0 0 -165 0 -165 80 0 80 0 0 -85 0 -85 170 0 170
0 0 170 0 170 -85 0 -85 0 0 80 0 80 -85 0 -85 0 0 170 0 170 -80 0 -80 0 0
80 0 80 -85 0 -85 0 0 85 0 85 -165 0 -165 0 0 415 0 415 -85 0 -85 0 0 85 0
85 -85 0 -85 0 0 85 0 85 -80 0 -80 0 0 80 0 80 -420 0 -420 0 0 -80z m-1660
-915 l0 -165 80 0 80 0 0 165 0 165 85 0 85 0 0 -250 0 -250 -85 0 -85 0 0
-85 0 -85 170 0 170 0 0 85 0 85 80 0 80 0 0 -165 0 -165 -165 0 -165 0 0 -85
0 -85 -165 0 -165 0 0 85 0 85 -170 0 -170 0 0 80 0 80 -80 0 -80 0 0 250 0
250 80 0 80 0 0 -80 0 -80 85 0 85 0 0 165 0 165 85 0 85 0 0 -165z"/>
<path d="M2330 3055 l0 -85 85 0 85 0 0 -85 0 -85 85 0 85 0 0 85 0 85 -85 0
-85 0 0 85 0 85 -85 0 -85 0 0 -85z"/>
<path d="M3000 3055 l0 -85 -85 0 -85 0 0 -85 0 -85 85 0 85 0 0 85 0 85 85 0
85 0 0 85 0 85 -85 0 -85 0 0 -85z"/>
<path d="M2500 2470 l0 -170 250 0 250 0 0 170 0 170 -85 0 -85 0 0 -85 0 -85
-80 0 -80 0 0 85 0 85 -85 0 -85 0 0 -170z"/>
<path d="M2170 1805 l0 -165 165 0 165 0 0 -85 0 -85 250 0 250 0 0 85 0 85
165 0 165 0 0 165 0 165 -80 0 -80 0 0 -85 0 -85 -170 0 -170 0 0 -80 0 -80
-80 0 -80 0 0 80 0 80 -170 0 -170 0 0 85 0 85 -80 0 -80 0 0 -165z"/>
</g>
</svg>
